# xmcd
#
# Track frame offsets: 
#        150
#        16859
#        29091
#        44344
#        54395
#        71297
#        87121
#        100825
#        122897
#        136993
#
# Disc length: 2054 seconds
#
# Revision: 0
# Processed by: cddbd v1.5.2PL0 Copyright (c) Steve Scherf et al.
# Submitted via: ExactAudioCopyFreeDBPlugin 1.0
#
DISCID=7f08040a
DTITLE=King Tyrone And The Graveyard Ramblers - King Tyrone And The Gr
DTITLE=aveyard Ramblers
DYEAR=2008
DGENRE=Blues
TTITLE0=Mama's Drinkin' Liquor Again
TTITLE1=Ain't Got No Sense
TTITLE2=Payin' The Price
TTITLE3=Was She Now?
TTITLE4=Up To No Good
TTITLE5=Doin' What We Did Again
TTITLE6=Like To See My Baby (Ft.  Angel Rissoff)
TTITLE7=Queen O' Clubs
TTITLE8=Captain Creedmore's Cajun Crawfish Christmas
TTITLE9=What You Done Got For Me
EXTD=
EXTT0=
EXTT1=
EXTT2=
EXTT3=
EXTT4=
EXTT5=
EXTT6=
EXTT7=
EXTT8=
EXTT9=
PLAYORDER=
